#N canvas 539 455 940 442 10;
#X obj 299 82 readsf~ 2;
#X obj 20 183 wavinfo;
#X obj 20 205 / 44.1;
#X floatatom 20 227 10 0 0 0 - - -;
#X obj 299 224 *~;
#X obj 299 256 dac~;
#X obj 782 58 r totalDuration;
#X msg 693 113 0;
#X obj 666 62 t b b;
#X obj 410 155 line~;
#X obj 566 94 loadbang;
#X obj 693 341 s fadeout;
#X obj 737 113 pack f f;
#X obj 737 90 f;
#X floatatom 693 186 5 0 0 0 - - -;
#X obj 708 210 r totalDuration;
#X obj 708 275 -;
#X obj 717 231 r fadeDuration;
#X obj 410 119 pack 0 f;
#X obj 470 94 r fadeDuration;
#X msg 566 116 1;
#X obj 410 94 r fadeout;
#X obj 395 74 r fadeDuration;
#X obj 350 119 pack 1 f;
#X obj 20 85 s fadeDuration;
#X floatatom 20 63 5 0 0 0 - - -;
#X text 62 63 1) set fade duration in ms;
#X text 297 21 3) now here;
#X msg 299 45 open a.wav \, 1;
#X obj 20 140 bng 15 250 50 0 empty empty empty 17 7 0 10 -262144 -1
-1;
#X text 86 226 total duration in ms;
#X obj 20 160 openpanel;
#X text 41 136 2) click here and select your file;
#X obj 410 200 vsl 15 32 0 1 0 0 empty empty empty 0 -9 0 10 -262144
-1 -1 3100 1;
#X obj 410 178 snaps~;
#X obj 717 253 t b f;
#X obj 693 299 ==;
#X obj 693 321 sel 1;
#X obj 693 163 line 0 1;
#X obj 20 248 i;
#X obj 20 270 s totalDuration;
#X text 712 24 fadeout moment;
#X obj 20 40 ii 80;
#X text 427 206 visualization of fader;
#X connect 0 0 4 0;
#X connect 0 1 4 0;
#X connect 0 2 28 0;
#X connect 0 2 23 0;
#X connect 1 0 2 0;
#X connect 2 0 3 0;
#X connect 3 0 39 0;
#X connect 4 0 5 0;
#X connect 4 0 5 1;
#X connect 6 0 12 1;
#X connect 6 0 13 1;
#X connect 7 0 38 0;
#X connect 8 0 13 0;
#X connect 8 1 7 0;
#X connect 9 0 4 1;
#X connect 9 0 34 0;
#X connect 10 0 20 0;
#X connect 12 0 38 0;
#X connect 13 0 12 0;
#X connect 14 0 36 0;
#X connect 15 0 16 0;
#X connect 16 0 36 1;
#X connect 17 0 35 0;
#X connect 18 0 9 0;
#X connect 19 0 18 1;
#X connect 20 0 9 0;
#X connect 21 0 18 0;
#X connect 22 0 23 1;
#X connect 23 0 9 0;
#X connect 25 0 24 0;
#X connect 28 0 0 0;
#X connect 28 0 8 0;
#X connect 29 0 31 0;
#X connect 31 0 1 0;
#X connect 34 0 33 0;
#X connect 35 0 16 0;
#X connect 35 1 16 1;
#X connect 36 0 37 0;
#X connect 37 0 11 0;
#X connect 38 0 14 0;
#X connect 39 0 40 0;
#X connect 42 0 25 0;
